<svg width="141" height="139" viewBox="0 0 141 139" fill="none" xmlns="http://www.w3.org/2000/svg">
<path id="Vector" fill-rule="evenodd" clip-rule="evenodd" d="M121.055 22.1548C118.199 22.4654 115.583 23.898 113.783 26.1374C111.982 28.3767 111.146 31.2395 111.456 34.0958L112.237 41.2757L133.777 38.9334L132.996 31.7535C132.685 28.8972 131.253 26.2812 129.013 24.4811C126.774 22.681 123.911 21.8442 121.055 22.1548ZM134.557 46.1133L113.018 48.4556L119.459 107.69L131.986 122.673L140.999 105.347L134.557 46.1133ZM1.02515 20.6777L12.7366 128.376C13.0472 131.232 14.4798 133.848 16.7192 135.649C18.9585 137.449 21.8213 138.285 24.6776 137.975L103.656 129.386C106.513 129.076 109.129 127.643 110.929 125.404C112.729 123.164 113.566 120.302 113.255 117.445L101.544 9.74696C101.233 6.89062 99.8005 4.27466 97.5611 2.47455C95.3218 0.67445 92.459 -0.162341 89.6027 0.148267L10.6238 8.73669C7.76751 9.0473 5.15154 10.4799 3.35144 12.7192C1.55134 14.9586 0.714545 17.8213 1.02515 20.6777ZM53.6267 36.752C53.5232 35.7999 53.8021 34.8456 54.4021 34.0992C55.0022 33.3527 55.8742 32.8752 56.8263 32.7717L85.5459 29.6486C86.498 29.5451 87.4522 29.824 88.1987 30.424C88.9451 31.0241 89.4227 31.8961 89.5262 32.8482C89.6297 33.8003 89.3508 34.7545 88.7508 35.501C88.1507 36.2475 87.2787 36.725 86.3266 36.8285L57.607 39.9516C56.6549 40.0551 55.7007 39.7762 54.9542 39.1761C54.2078 38.5761 53.7303 37.7041 53.6267 36.752ZM58.3878 47.1315C57.4357 47.235 56.5637 47.7125 55.9637 48.459C55.3636 49.2054 55.0847 50.1597 55.1883 51.1118C55.2918 52.0639 55.7693 52.9359 56.5158 53.5359C57.2622 54.136 58.2165 54.4149 59.1686 54.3114L87.8882 51.1883C88.8403 51.0848 89.7123 50.6072 90.3123 49.8608C90.9123 49.1143 91.1913 48.1601 91.0877 47.208C90.9842 46.2559 90.5067 45.3839 89.7602 44.7838C89.0138 44.1838 88.0595 43.9049 87.1074 44.0084L58.3878 47.1315ZM58.7017 83.4213C58.5982 82.4692 58.8771 81.515 59.4771 80.7685C60.0772 80.022 60.9491 79.5445 61.9013 79.441L90.6208 76.3179C91.573 76.2144 92.5272 76.4933 93.2737 77.0934C94.0201 77.6934 94.4976 78.5654 94.6012 79.5175C94.7047 80.4696 94.4258 81.4239 93.8257 82.1703C93.2257 82.9168 92.3537 83.3943 91.4016 83.4978L62.682 86.6209C61.7299 86.7244 60.7757 86.4455 60.0292 85.8455C59.2827 85.2454 58.8052 84.3734 58.7017 83.4213ZM63.4628 93.8008C62.5107 93.9043 61.6387 94.3818 61.0387 95.1283C60.4386 95.8748 60.1597 96.829 60.2632 97.7811C60.3668 98.7332 60.8443 99.6052 61.5907 100.205C62.3372 100.805 63.2914 101.084 64.2436 100.981L92.9631 97.8576C93.9153 97.7541 94.7872 97.2766 95.3873 96.5301C95.9873 95.7837 96.2662 94.8294 96.1627 93.8773C96.0592 92.9252 95.5817 92.0532 94.8352 91.4532C94.0887 90.8531 93.1345 90.5742 92.1824 90.6777L63.4628 93.8008ZM29.9821 86.5444L31.1533 97.3142L41.9231 96.1431L40.752 85.3732L29.9821 86.5444ZM25.6114 79.7549L43.5611 77.803C44.5132 77.6994 45.4675 77.9784 46.214 78.5784C46.9604 79.1784 47.4379 80.0504 47.5415 81.0025L49.4934 98.9523C49.5969 99.9044 49.318 100.859 48.718 101.605C48.1179 102.352 47.2459 102.829 46.2938 102.933L28.3441 104.885C27.392 104.988 26.4377 104.709 25.6913 104.109C24.9448 103.509 24.4673 102.637 24.3637 101.685L22.4118 83.7352C22.3083 82.7831 22.5872 81.8288 23.1873 81.0824C23.7873 80.3359 24.6593 79.8584 25.6114 79.7549ZM45.671 40.1852C46.2513 39.4371 46.5145 38.4909 46.404 37.5505C46.2934 36.6101 45.818 35.7508 45.08 35.1575C44.342 34.5643 43.4005 34.2847 42.4584 34.3789C41.5162 34.473 40.6487 34.9335 40.0428 35.6611L29.5066 48.7683L24.36 44.6313C23.6119 44.0509 22.6657 43.7877 21.7253 43.8982C20.7849 44.0088 19.9256 44.4842 19.3323 45.2222C18.7391 45.9602 18.4595 46.9017 18.5537 47.8438C18.6478 48.786 19.1083 49.6535 19.8359 50.2594L30.6106 58.9207L45.671 40.1852Z" fill="#006AF4"/>
</svg>
