<svg width="131" height="131" viewBox="0 0 131 131" fill="none" xmlns="http://www.w3.org/2000/svg">
<path id="Vector" d="M89.875 24.875V0.5H16.75V114.25H0.5V122.375H57.375V81.75H73.625V65.5H114.25V24.875H89.875ZM49.25 81.75H33V65.5H49.25V81.75ZM49.25 57.375H33V41.125H49.25V57.375ZM49.25 33H33V16.75H49.25V33ZM73.625 57.375H57.375V41.125H73.625V57.375ZM73.625 33H57.375V16.75H73.625V33ZM106.125 57.375H89.875V41.125H106.125V57.375ZM114.25 89.875H130.5V130.5H65.5V89.875H81.75V73.625H114.25V89.875Z" fill="#006AF4"/>
</svg>
