<svg width="28" height="27" viewBox="0 0 28 27" fill="none" xmlns="http://www.w3.org/2000/svg">
<path id="Vector" d="M13.9995 3.66471e-07C15.7643 -0.000511056 17.4828 0.534271 18.9028 1.52585C20.3228 2.51744 21.3694 3.9136 21.8891 5.50942C22.4088 7.10523 22.3742 8.81666 21.7904 10.3925C21.2066 11.9683 20.1043 13.3256 18.6452 14.2651C21.1777 15.144 23.3742 16.7199 24.952 18.79C26.5298 20.8601 27.4167 23.3296 27.4985 25.8808C27.5062 26.0224 27.4839 26.164 27.4329 26.2973C27.3819 26.4307 27.3033 26.553 27.2017 26.6572C27.1001 26.7614 26.9775 26.8454 26.8412 26.9042C26.7048 26.963 26.5574 26.9954 26.4076 26.9995C26.2578 27.0037 26.1087 26.9795 25.9689 26.9284C25.8291 26.8773 25.7015 26.8003 25.5936 26.7019C25.4857 26.6035 25.3997 26.4857 25.3405 26.3554C25.2814 26.2252 25.2503 26.085 25.2492 25.9432C25.1598 23.1766 23.9355 20.5516 21.8357 18.6246C19.7359 16.6975 16.9255 15.6198 14.0003 15.6198C11.075 15.6198 8.26468 16.6975 6.16485 18.6246C4.06502 20.5516 2.8407 23.1766 2.75134 25.9432C2.74239 26.2256 2.61523 26.4931 2.39784 26.6868C2.18045 26.8806 1.89064 26.9846 1.59216 26.9762C1.29368 26.9677 1.01099 26.8474 0.806261 26.6417C0.601536 26.436 0.491553 26.1618 0.500507 25.8793C0.58266 23.3285 1.46971 20.8592 3.04749 18.7894C4.62528 16.7196 6.8216 15.1439 9.3538 14.2651C7.89478 13.3256 6.79246 11.9683 6.20863 10.3925C5.62479 8.81666 5.59019 7.10523 6.1099 5.50942C6.62962 3.9136 7.67627 2.51744 9.09624 1.52585C10.5162 0.534271 12.2347 -0.000511056 13.9995 3.66471e-07ZM7.99729 7.80909C7.99729 9.31535 8.62967 10.7599 9.7553 11.825C10.8809 12.8901 12.4076 13.4884 13.9995 13.4884C15.5914 13.4884 17.1181 12.8901 18.2437 11.825C19.3694 10.7599 20.0017 9.31535 20.0017 7.80909C20.0017 6.30284 19.3694 4.85828 18.2437 3.79319C17.1181 2.72811 15.5914 2.12975 13.9995 2.12975C12.4076 2.12975 10.8809 2.72811 9.7553 3.79319C8.62967 4.85828 7.99729 6.30284 7.99729 7.80909Z" fill="#CCCCCC"/>
</svg>
