<svg width="24" height="24" viewBox="0 0 24 24" fill="none" xmlns="http://www.w3.org/2000/svg">
<g id="logo-svg">
<path id="Vector" d="M7.1315 9.64948L2.75 16.8045M7.1315 9.64948L15.675 3.93298L14.8635 11.3135M7.1315 9.64948L11.4745 12.49M21.25 11.3135H14.1085C12.505 11.3315 10.241 12.8755 10.2545 15.2465V21.25M13.21 5.58198L15.3475 6.90898" stroke="#F24E1E" stroke-linecap="round" stroke-linejoin="round"/>
<path id="Vector_2" d="M15.258 12.9025C14.87 15.121 14.9655 17.1325 15.3985 19.0665" stroke="#F24E1E" stroke-linecap="round" stroke-linejoin="round"/>
<path id="Vector_3" d="M13.021 13.979C14.7585 14.1555 16.48 14.0615 18.1875 13.742M17.275 14.7955C17.1835 17.6575 12.8995 20.3505 12.942 18.03C12.964 16.8235 14.5785 15.452 16.1985 15.4325C17.4335 15.4175 18.882 15.874 18.892 16.982C18.905 18.4485 17.707 19.2945 16.424 19.399" stroke="#F24E1E" stroke-linecap="round" stroke-linejoin="round"/>
<path id="Vector_4" d="M19.25 2.75H4.75C3.64543 2.75 2.75 3.64543 2.75 4.75V19.25C2.75 20.3546 3.64543 21.25 4.75 21.25H19.25C20.3546 21.25 21.25 20.3546 21.25 19.25V4.75C21.25 3.64543 20.3546 2.75 19.25 2.75Z" stroke="#F24E1E" stroke-linecap="round" stroke-linejoin="round"/>
</g>
</svg>
