<svg width="30" height="24" viewBox="0 0 30 24" fill="none" xmlns="http://www.w3.org/2000/svg">
<path id="mail-icon-svg" d="M3.66683 23.3334C2.88766 23.3334 2.22089 23.0562 1.6665 22.5018C1.11211 21.9474 0.834441 21.2802 0.833496 20.5001V3.50008C0.833496 2.72091 1.11116 2.05414 1.6665 1.49975C2.22183 0.945359 2.88861 0.667692 3.66683 0.666748H26.3335C27.1127 0.666748 27.7799 0.944414 28.3352 1.49975C28.8906 2.05508 29.1678 2.72186 29.1668 3.50008V20.5001C29.1668 21.2792 28.8896 21.9465 28.3352 22.5018C27.7809 23.0572 27.1136 23.3344 26.3335 23.3334H3.66683ZM15.0002 13.4167L3.66683 6.33342V20.5001H26.3335V6.33342L15.0002 13.4167ZM15.0002 10.5834L26.3335 3.50008H3.66683L15.0002 10.5834ZM3.66683 6.33342V3.50008V20.5001V6.33342Z" fill="black"/>
</svg>
