<svg width="30" height="29" viewBox="0 0 30 29" fill="none" xmlns="http://www.w3.org/2000/svg">
<path id="Vector" d="M24.6429 16.4286V14.5C24.6429 13.9885 24.4397 13.498 24.078 13.1363C23.7163 12.7746 23.2258 12.5714 22.7143 12.5714H3.42857C2.91708 12.5714 2.42654 12.7746 2.06487 13.1363C1.70319 13.498 1.5 13.9885 1.5 14.5V26.0714C1.5 26.5829 1.70319 27.0735 2.06487 27.4351C2.42654 27.7968 2.91708 28 3.42857 28H22.7143C23.2258 28 23.7163 27.7968 24.078 27.4351C24.4397 27.0735 24.6429 26.5829 24.6429 26.0714V24.1429M24.6429 16.4286H16.9286C15.9056 16.4286 14.9245 16.8349 14.2012 17.5583C13.4778 18.2817 13.0714 19.2627 13.0714 20.2857C13.0714 21.3087 13.4778 22.2898 14.2012 23.0131C14.9245 23.7365 15.9056 24.1429 16.9286 24.1429H24.6429M24.6429 16.4286C25.6658 16.4286 26.6469 16.8349 27.3703 17.5583C28.0936 18.2817 28.5 19.2627 28.5 20.2857C28.5 21.3087 28.0936 22.2898 27.3703 23.0131C26.6469 23.7365 25.6658 24.1429 24.6429 24.1429M7.28571 12.5714V6.78571C7.28571 5.25125 7.89528 3.77963 8.98031 2.6946C10.0653 1.60956 11.537 1 13.0714 1C14.6059 1 16.0775 1.60956 17.1625 2.6946C18.2476 3.77963 18.8571 5.25125 18.8571 6.78571V12.5714M23.6786 20.2857H25.6071M19.8214 20.2857H21.75M15.9643 20.2857H17.8929" stroke="#CCCCCC" stroke-width="2"/>
</svg>
