<svg width="16" height="20" viewBox="0 0 16 20" fill="none" xmlns="http://www.w3.org/2000/svg">
<path id="Vector" d="M7.16992 9.74365L0.529297 3.10303C0.0703125 2.64404 0.0703125 1.90186 0.529297 1.44775L1.63281 0.344238C2.0918 -0.114746 2.83398 -0.114746 3.28809 0.344238L7.99512 5.05127L12.7021 0.344238C13.1611 -0.114746 13.9033 -0.114746 14.3574 0.344238L15.4707 1.44287C15.9297 1.90186 15.9297 2.64404 15.4707 3.09814L8.83008 9.73877C8.37109 10.2026 7.62891 10.2026 7.16992 9.74365ZM8.83008 19.1187L15.4707 12.478C15.9297 12.019 15.9297 11.2769 15.4707 10.8228L14.3672 9.71924C13.9082 9.26025 13.166 9.26025 12.7119 9.71924L8 14.4214L3.29297 9.71435C2.83398 9.25537 2.0918 9.25537 1.6377 9.71435L0.529297 10.8179C0.0703125 11.2769 0.0703125 12.019 0.529297 12.4731L7.16992 19.1138C7.62891 19.5776 8.37109 19.5776 8.83008 19.1187Z" fill="white"/>
</svg>
