<svg width="33" height="28" viewBox="0 0 33 28" fill="none" xmlns="http://www.w3.org/2000/svg">
<path id="Vector" d="M16.3693 15.3945L5.21309 26.5507C4.44199 27.3218 3.19512 27.3218 2.43223 26.5507L0.57832 24.6968C-0.192773 23.9257 -0.192773 22.6789 0.57832 21.916L8.48613 14.0082L0.57832 6.10034C-0.192773 5.32925 -0.192773 4.08237 0.57832 3.31948L2.42402 1.44917C3.19512 0.678076 4.44199 0.678076 5.20488 1.44917L16.3611 12.6054C17.1404 13.3765 17.1404 14.6234 16.3693 15.3945ZM32.1193 12.6054L20.9631 1.44917C20.192 0.678076 18.9451 0.678076 18.1822 1.44917L16.3283 3.30308C15.5572 4.07417 15.5572 5.32104 16.3283 6.08394L24.2361 13.9917L16.3283 21.8996C15.5572 22.6707 15.5572 23.9175 16.3283 24.6804L18.1822 26.5343C18.9533 27.3054 20.2002 27.3054 20.9631 26.5343L32.1193 15.3781C32.8904 14.6234 32.8904 13.3765 32.1193 12.6054Z" fill="white"/>
</svg>
