<svg width="131" height="129" viewBox="0 0 131 129" fill="none" xmlns="http://www.w3.org/2000/svg">
<path id="Vector" fill-rule="evenodd" clip-rule="evenodd" d="M5.14286 0.705811C3.91149 0.705811 2.73057 1.19497 1.85986 2.06567C0.989157 2.93638 0.5 4.11731 0.5 5.34867L0.5 98.2058C0.5 99.4372 0.989157 100.618 1.85986 101.489C2.73057 102.36 3.91149 102.849 5.14286 102.849H49.3057C47.7284 98.3744 46.9245 93.6642 46.9286 88.9201C46.9286 77.118 51.8221 66.4487 59.6964 58.853V12.7958C58.3726 9.24693 55.9953 6.18768 52.8833 4.02838C49.7713 1.86907 46.0735 0.712962 42.2857 0.715097L5.14286 0.705811ZM71.3036 12.8051V50.923C77.3072 48.1701 83.8779 46.8796 90.4768 47.1574C97.0757 47.4351 103.515 49.2731 109.266 52.5206C115.017 55.7681 119.916 60.3327 123.562 65.8399C127.208 71.3472 129.497 77.6402 130.24 84.2029H130.5V5.34867C130.5 4.11731 130.011 2.93638 129.14 2.06567C128.269 1.19497 127.089 0.705811 125.857 0.705811H88.7143C84.9243 0.705086 81.2249 1.86392 78.1126 4.02672C75.0004 6.18952 72.6244 9.25274 71.3036 12.8051ZM88.7143 72.6701C84.4045 72.6701 80.2713 74.3821 77.2238 77.4296C74.1763 80.4771 72.4643 84.6103 72.4643 88.9201C72.4643 93.2299 74.1763 97.3631 77.2238 100.411C80.2713 103.458 84.4045 105.17 88.7143 105.17C93.0241 105.17 97.1573 103.458 100.205 100.411C103.252 97.3631 104.964 93.2299 104.964 88.9201C104.964 84.6103 103.252 80.4771 100.205 77.4296C97.1573 74.3821 93.0241 72.6701 88.7143 72.6701ZM58.5357 88.9201C58.5375 84.2551 59.6207 79.6541 61.7003 75.4783C63.7799 71.3026 66.7992 67.6657 70.5211 64.8535C74.2431 62.0412 78.5663 60.1301 83.1513 59.2702C87.7363 58.4103 92.4583 58.625 96.9463 59.8975C101.434 61.17 105.566 63.4656 109.018 66.6041C112.469 69.7425 115.146 73.6384 116.838 77.9856C118.53 82.3329 119.191 87.0133 118.769 91.6591C118.348 96.305 116.855 100.79 114.408 104.762L126.136 116.489C127.405 117.802 128.108 119.561 128.093 121.387C128.078 123.213 127.346 124.96 126.056 126.252C124.765 127.544 123.018 128.277 121.192 128.294C119.366 128.311 117.607 127.61 116.293 126.342L104.556 114.614C99.9831 117.434 94.7405 118.982 89.3694 119.099C83.9984 119.215 78.6935 117.896 74.0028 115.277C69.312 112.658 65.4054 108.835 62.6864 104.201C59.9673 99.5677 58.5345 94.2924 58.5357 88.9201Z" fill="#006AF4"/>
</svg>
